<?xml version="1.0" standalone="no"?>
<!DOCTYPE svg PUBLIC "-//W3C//DTD SVG 20010904//EN"
 "http://www.w3.org/TR/2001/REC-SVG-20010904/DTD/svg10.dtd">
<svg version="1.0" xmlns="http://www.w3.org/2000/svg"
 width="600.000000pt" height="600.000000pt" viewBox="0 0 600.000000 600.000000"
 preserveAspectRatio="xMidYMid meet">
<metadata>
Created by potrace 1.11, written by Peter Selinger 2001-2013
</metadata>
<g transform="translate(0.000000,600.000000) scale(0.100000,-0.100000)"
fill="#000000" stroke="none">
<path d="M1235 4378 c-15 -35 -54 -118 -86 -186 -33 -68 -59 -125 -59 -127 0
-1 -26 -58 -59 -126 -32 -68 -70 -149 -84 -179 -91 -199 -162 -352 -251 -542
-18 -40 -48 -104 -66 -143 -18 -38 -66 -142 -107 -230 -42 -88 -87 -185 -100
-215 -38 -82 -86 -185 -131 -280 -22 -47 -51 -110 -65 -140 -13 -30 -55 -120
-92 -200 -37 -80 -83 -178 -101 -218 -39 -83 -41 -101 -15 -133 19 -23 19 -23
271 -24 346 -1 317 -17 437 249 l72 161 544 3 544 2 53 -117 c101 -224 120
-259 153 -278 29 -17 56 -19 282 -20 270 -2 297 3 309 49 7 28 4 37 -52 156
-22 47 -49 105 -60 130 -11 25 -48 103 -81 173 -34 71 -61 130 -61 132 0 1
-22 49 -49 106 -26 57 -61 131 -76 164 -15 33 -50 107 -77 165 -27 58 -60 128
-73 155 -12 28 -53 115 -90 195 -97 210 -250 539 -306 659 -27 57 -49 105 -49
107 0 2 -31 69 -70 149 -38 80 -70 148 -70 150 0 2 -31 70 -70 151 -38 80 -70
150 -70 155 0 5 -38 9 -84 9 l-83 0 -28 -62z m178 -1278 c19 -41 48 -104 65
-140 16 -36 59 -130 96 -209 36 -78 64 -147 61 -151 -3 -5 -138 -8 -300 -8
l-294 0 13 32 c8 17 41 90 74 161 102 222 109 238 136 298 14 31 37 82 52 113
l25 57 19 -39 c10 -21 34 -73 53 -114z"/>
<path d="M3290 4418 c-8 -18 -48 -247 -66 -368 -1 -14 -15 -93 -29 -175 -14
-83 -28 -166 -31 -185 -3 -19 -11 -69 -19 -110 -8 -41 -17 -93 -20 -115 -3
-22 -7 -51 -10 -65 -8 -40 -15 -83 -21 -120 -3 -19 -7 -46 -10 -60 -2 -14 -7
-41 -10 -60 -3 -19 -7 -46 -10 -60 -13 -81 -106 -629 -109 -650 -8 -51 -36
-216 -41 -240 -2 -14 -7 -41 -10 -60 -6 -41 -42 -254 -49 -290 -17 -97 -24
-157 -19 -177 12 -45 40 -50 316 -49 245 1 259 2 278 22 19 19 27 50 45 184 3
25 12 88 20 140 8 52 17 115 20 140 3 25 8 56 10 70 8 58 17 117 20 140 3 14
7 45 10 70 3 25 7 54 9 66 2 12 7 45 11 75 3 30 8 61 10 69 2 8 7 40 10 70 3
30 10 80 15 110 5 30 12 73 15 94 3 22 7 42 10 44 2 3 25 -37 50 -88 25 -51
49 -98 53 -104 5 -6 55 -101 112 -211 57 -110 124 -240 150 -290 26 -49 83
-160 128 -245 44 -85 105 -202 135 -260 34 -64 65 -111 81 -121 37 -22 132
-17 156 8 17 17 46 71 210 388 40 77 101 194 135 260 34 66 104 201 155 300
192 373 199 385 201 350 2 -29 5 -49 22 -165 9 -58 18 -121 21 -140 3 -19 8
-53 11 -75 3 -22 10 -71 16 -110 5 -38 11 -81 14 -95 6 -40 27 -181 30 -212 2
-15 14 -92 25 -171 12 -78 23 -153 25 -167 22 -153 3 -145 319 -146 270 0 300
4 311 49 4 13 -3 79 -15 148 -11 68 -23 138 -25 154 -6 36 -13 83 -19 110 -2
11 -7 43 -11 70 -5 28 -9 52 -10 55 0 3 -4 27 -9 53 -4 27 -9 58 -12 70 -2 12
-6 39 -10 61 -3 22 -7 43 -9 46 -1 3 -6 28 -9 55 -6 45 -30 188 -40 242 -3 12
-8 43 -12 70 -3 26 -8 57 -10 68 -3 17 -21 122 -79 465 -2 14 -20 122 -40 240
-20 118 -38 226 -40 240 -2 14 -11 63 -19 110 -8 47 -17 104 -21 128 -3 24
-13 80 -21 125 -8 45 -18 102 -20 126 -3 25 -11 61 -17 80 l-12 36 -91 3 -90
3 -64 -118 c-35 -65 -79 -147 -98 -183 -19 -36 -63 -117 -97 -180 -34 -63 -82
-153 -107 -200 -63 -117 -183 -341 -228 -425 -66 -122 -85 -158 -135 -250 -26
-49 -58 -109 -71 -133 -13 -24 -49 -90 -80 -148 -50 -92 -58 -103 -68 -87 -7
10 -70 126 -141 258 -149 278 -188 351 -225 420 -15 28 -110 203 -210 390
-100 187 -202 376 -225 420 -24 44 -62 114 -84 155 l-40 75 -90 3 c-87 3 -92
2 -101 -20z"/>
</g>
</svg>
